<?xml version="1.0" encoding="utf-8"?>
<!-- Generator: Adobe Illustrator 28.4.1, SVG Export Plug-In . SVG Version: 6.00 Build 0)  -->
<svg version="1.1" id="Layer_1" xmlns="http://www.w3.org/2000/svg" xmlns:xlink="http://www.w3.org/1999/xlink" x="0px" y="0px"
	 viewBox="0 0 566.9 566.9" style="enable-background:new 0 0 566.9 566.9;" xml:space="preserve">
<style type="text/css">
	.st0{fill:#FFFFFF;}
</style>
<g id="Layer_1_00000029021387892738116280000001172599357504883875_">
	<path class="st0" d="M147.1,310.2c-1.1-1.6-1.5-3.5-1.1-5.3c0.2-2.1,0.2-4.2,0.1-6.3c0-0.8,0.1-1.6,0.1-2.4s0.1-1.9,0.2-2.8
		c0-0.4,0-0.9,0.1-1.3c1.2-2.5,1.6-5.2,2.2-7.9s1.6-5.4,2.6-8.1c0.3-0.6,0.7-1.2,1.1-1.8c0.8-1.4,1.9-2.5,2.2-4.2
		c0.4-1.2,1-2.3,1.9-3.2c0.9-1.2,1.6-2.5,2-3.9c0.4-1.2,1-2.4,1.6-3.5c1.1-2,2.3-3.8,3.5-5.8c0.2-0.3,0.5-0.6,0.5-0.9
		c0-1.5,1-2.2,1.8-3.2c1.6-2.2,3.1-4.4,4.6-6.6c0.2-0.4,0.4-0.8,0.5-1.2c0.2-2.2,0.6-4.3,1.2-6.4c0.7-2.1,0.5-4.6,1.8-6.6
		c0.4-0.6,0.3-1.6,0.6-2.2c1.3-2.5,2.1-5.3,3.9-7.4c0.6-0.9,1-1.8,1.5-2.8c1.1-1.8,2.5-3.5,3.5-5.4c1.7-2.9,3.6-5.8,5.6-8.5
		c1.2-1.6,2.7-3.1,4.3-4.3c1.7-1.3,3.3-2.7,4.8-4.2c2.8-3.1,6.1-5.6,9.8-7.5c1.2-0.5,2.3-1.2,3.3-2c0.6-0.4,1.2-0.8,1.9-1
		c2.3-1,4.6-2.1,6.9-3.1c0.3-0.1,0.6-0.4,0.9-0.5c4.6-1.6,9.1-3.2,13.7-4.6c3.4-1.1,6.8-1.9,10.2-2.8c0.9-0.2,1.8-0.3,2.7-0.4
		c3.7-0.2,7.2-1.7,10.7-2.9c2.6-0.7,5.1-1.8,7.5-3.3c1-0.5,2.1-1,3.2-1.2c4.8-1.9,9.6-3.7,14.5-5.6c0.4-0.1,0.9-0.2,1.3-0.2
		c2.3-0.2,4.6-0.4,6.9-0.6c0.8,0,1.5,0,2.3,0.1c1,0.1,2,0.1,3,0.2c1.4,0.1,2.8,0.2,4.1,0.5c3.2,0.7,6.3,1.6,9.4,2.7
		c1.9,0.6,3.7,1.5,5.4,2.6c1.8,1.1,3.3,2.6,4.3,4.3c0.2,0.3,0.4,0.5,0.7,0.7c1.5,0.7,2.1,2.1,2.7,3.7c0.9,2.4,2.1,4.6,3.1,7
		c0.3,0.6,0.5,1.2,0.8,1.7c0.2,0.4,0.4,0.9,0.6,1c1,0.6,2.1,1.1,3.1,1.5c3.2,1.3,6.4,2.5,9.6,3.8c0.5,0.3,0.9,0.6,1.3,1
		c0.5,0.5,1,0.9,1.5,1.3c2.3,1.3,4.7,2.5,7.1,3.8c0.8,0.4,1.6,0.9,2.4,1.4c2.2,1.5,4.3,3.1,6.5,4.6c1.1,0.8,2.2,1.6,3.4,2.3
		c5.6,3.3,10.7,7.4,15.1,12.2c1.7,1.8,3.5,3.3,5.3,5.1s3.2,3.4,4.7,5.1c0.6,0.9,1.2,1.9,1.8,2.9c1.5,2.3,3.7,3.7,5.5,5.7
		s3.9,3,5.3,5.2c0.2,0.4,0.8,0.5,1.1,0.8c0.7,0.6,1.3,1.3,1.8,2.2c0.5,1.1,1.2,2.2,2.1,3c1.9,2,3.4,4.2,4.5,6.7
		c0.4,0.8,1.1,1.3,1.4,2c1.4,2.9,2.7,5.8,4,8.7c0.5,5.2,3.1,9.6,4.1,14.7c1,4.9,1.4,9.9,1.4,15c0.1,3.5-0.4,7-1.4,10.4
		c-0.3,0.9-0.1,2.1-0.5,3c-0.9,2.1-2,4.2-3,6.3c-0.2,0.5-0.6,1-0.8,1.5c-1.8,3.4-3.8,6.6-6.1,9.7c-0.3,0.4-0.7,0.8-1.1,1.2
		c-2.1,1.6-3,4-4,6.6c-0.7,2-1.5,4-2.4,5.9c-1.3,2.9-2.6,5.7-3.9,8.5c-0.3,0.7-0.7,1.4-1.1,2c-2.5,3.4-5.1,6.9-7.7,10.3l-3.8,5
		c-0.1,0.2-0.3,0.4-0.6,0.6c-1.8,1.1-2.7,3.2-4,4.8c-0.2,0.3-0.4,0.5-0.6,0.8c-4.1,3.4-8.2,6.7-12.3,10c-2.1,1.7-4.3,3.4-6.5,4.9
		c-1.8,1.2-3.7,2.2-5.6,3.2c-2.6,1.3-5.4,2.3-8,3.6c-2.8,1.4-5.6,3.1-8.4,4.5c-1.6,0.8-3.3,1.5-5,2.1c-3.5,1.2-6.9,2.5-10.5,3.4
		c-4.7,1.2-9.4,2.8-14.2,2.8c-3.2,0-6.4,1.2-9.6,1.5c-2.2,0.2-4.5,0.2-6.7,0.1c-1.8,0-3.6,0-5.3-0.2c-2.7-0.3-5.4-1-8.1-1.2
		c-3-0.3-6-0.4-9-0.6c-1.1,0-2.3-0.3-3.3-0.8c-1.2-0.5-2.6-0.8-3.9-0.7c-2.7,0.1-5.1-1-7.6-1.9c-4.4-1.5-8.8-2.7-13.5-1.4
		c-1.3,0.2-2.7,0.2-4-0.1c-3.3-0.4-6.6-0.6-9.8-1.3c-3.6-0.8-7.2-1.9-10.8-2.9c-0.4-0.2-0.9-0.2-1.3-0.2c-1.9,0-3.8-0.4-5.6-1.1
		c-2.3-0.7-4.6-1.3-6.9-2.2c-1.6-0.7-3.1-1.6-4.6-2.6c-0.3-0.2-0.5-0.6-0.8-0.6c-2-0.2-3.5-1.7-5.2-2.5c-1.6-0.7-3-1.9-4.5-2.7
		c-2.1-1.2-4.2-2.6-6-4.2c-1.8-1.4-3.4-3-5.2-4.5c-0.8-0.7-1.6-1.4-2.4-2.2c-2.2-2.4-4.4-4.9-6.5-7.4c-0.9-1.1-1.2-2.7-2.7-3.2
		c-0.1,0-0.1-0.1-0.1-0.2c-1.4-3.5-4.2-5.8-6-8.9c-1-1.6-2-3.2-3.1-4.7c-1.3-2-2.2-4.2-2.8-6.4c-0.4-1.1-0.8-2.1-1.2-3.2
		c-0.5-1-0.8-2.1-1.1-3.2c-0.6-2.8-2.1-5.3-2.2-8.3c0-0.8-0.8-1.6-0.8-2.4c0-2.7-1.7-5-1.4-7.8c0-0.4-0.1-0.9-0.3-1.2
		C146.2,312.5,146.3,311.1,147.1,310.2z M169.2,252l-0.4-0.3c-0.6,0.7-1.1,1.3-1.6,2c-2.8,4.2-4.8,9-7,13.6l-2,4.1
		c-0.4,0.8-0.8,1.6-1.2,2.4c-0.5,0.7-1,1.4-1.4,2.1c-1.3,3.4-2.6,6.8-3.6,10.3c-1,3-1.5,6.1-1.6,9.2c0,0.4-0.1,0.7-0.2,1.1
		c-0.2,1.2-0.4,2.4-0.4,3.6c0,2,0.1,3.9,0.3,5.9s0.5,4,0.7,6c0.1,1.1,0.2,2.3,0.3,3.5c0.1,0.9,0.2,1.7,0.4,2.6
		c0.6,2.4,1.4,4.7,2,7.1c0.5,1.9,0.9,4,1.5,5.8c1.1,3,2.4,6,3.4,9c0.7,2.1,1.8,4,3.1,5.7c2.2,2.9,4.1,6.1,6.3,9
		c1.6,2.1,3,4.4,4.7,6.5c2.9,3.6,6.1,6.9,9.6,10c3.8,3.4,7.5,6.8,12.1,8.7c1.5,0.6,2.8,1.7,4.2,2.5c3.4,1.7,6.7,3.5,10.3,4.6
		c2.8,0.8,5.6,2,8.5,2.5c2.7,0.4,5.4,1.2,8,1.9c2,0.5,4,1.1,6,1.5s4.2,0.6,6.3,0.8c0.4,0,0.8-0.1,1.2-0.3c-0.3-0.8-1.1-1.4-1.9-1.5
		c-1-0.2-2-0.7-2.8-1.3c-1.4-1.2-2.6-2.6-4.4-2.8c-0.3-0.1-0.5-0.2-0.7-0.4c-1.8-1.8-4.1-3.1-6.6-3.6c-0.5-0.2-0.9-0.5-1.3-0.8
		c-0.9-0.6-1.8-1.1-2.7-1.7c-0.3-0.2-0.7-0.3-1-0.6c-2.3-1.7-4.6-3.5-6.8-5.3c-0.9-0.7-1.7-1.5-2.5-2.3c-0.4-0.4-0.6-0.9-1-1.3
		c-2.4-2.7-5.1-5-7.1-8.2c-1-1.5-2.2-2.8-3.3-4.2c-1.6-2.1-2.8-4.5-4.9-6.1c-0.2-0.2-0.4-0.4-0.5-0.6c-1.4-2.7-3.5-4.9-4.1-8.1
		c-0.1-0.2-0.2-0.4-0.3-0.6l-2.1-4.1c-1.2-2.3-2.3-4.7-3.5-6.9c-0.9-1.7-2-3.1-2.9-4.9c-1.6-3.5-3.5-6.9-4.4-10.9s-2.2-7.6-3.4-11.3
		c-0.5-1.7-1-3.3-1.8-4.8c-0.9-1.8-1.5-3.7-1.6-5.8c-0.2-3.6-1-7.2-0.2-10.9c0.4-2.1,0.1-4.3,0.5-6.5c0.4-2.5,1.2-4.9,1.8-7.4
		c0.3-1,0.5-2,0.6-3c0.2-3.1-0.8-6.1-0.1-9.2c0-0.4,0-0.7-0.2-1.1C168.9,255.6,168.8,253.8,169.2,252z M398.4,333.9
		c-0.3,0-0.4-0.1-0.5,0c-2.1,1.6-4.2,3.3-6.3,5c-1,0.8-2,1.7-3.1,2.5c-0.6,0.5-1.2,1-1.8,1.5s-1.3,0.9-1.9,1.4
		c-0.4,0.4-0.8,0.9-1.3,1.2c-2.8,1.7-5.4,3.9-8.3,5.3c-1.3,0.6-2.4,1.6-3.6,2.3c-1.3,0.7-2.6,1.3-4,1.8c-0.7,0.3-1.3,1-1.5,1.8
		c-0.6,1.4-1.4,2.6-2.1,3.9c-0.2,0.3-0.3,0.7-0.3,1c-0.3,2.3-1.3,4.4-2.8,6c-1.5,1.4-2.9,2.9-4.3,4.3c-2.8,2.9-5.9,5.6-9.3,7.9
		c-3,2-6.3,3.6-9.7,4.8c-0.5,0.2-1,0.4-1.5,0.6s-1.2,0.4-1.8,0.5c-0.9,0.2-1.8,0.5-2.8,0.7c-0.6,0.1-1.1,0.3-1.7,0.5
		c-1.9,0.6-3.9,1.3-5.8,1.9c-2.5,1-5,1.8-7.5,2.5c-4.2,0.8-8.5,1.2-12.7,1.7c-2,0.2-4,0.5-6.1,0.6c-1.3,0-2.6-0.3-3.8,0.7
		c-0.3,0.2-0.7,0.3-1.1,0.2c-1.4-0.6-2.7,0.1-4.1,0.2c-2.4,0.3-4.8,0.2-7.2,0.3c-1.6,0.1-3.3,0-4.9,0.2c-4,0.5-8,1.2-12,1.9
		c1.9,0.7,3.8,1.3,5.8,1.7c1.6,0.3,3.2,0.4,4.7,0.6c3.2,0.4,6.4,0.9,9.7,1.2c2.3,0.2,4.6,0.4,6.9,0.4c3.4,0,6.9,0,10.3-0.4
		c4.1-0.4,8.2-1,12.3-1.6c0.7-0.1,1.4-0.2,2.1-0.4c5.3-1.6,10.5-3.4,15.8-5c1.8-0.6,3.6-1.3,5.4-2.1c2.1-0.9,4.1-1.9,6.1-3.1
		c0.9-0.6,1.8-1,2.8-1.5c2.7-1.3,5.4-2.5,8.1-3.9c1.5-0.8,2.9-1.9,4.4-2.5c2.3-0.8,4.2-2.4,5.5-4.4c0.2-0.3,0.4-0.5,0.7-0.6
		c1.9-0.7,3.4-2.3,5-3.5c1-0.7,1.9-1.5,2.8-2.3c1.5-1.4,3.2-2.7,4.6-4.2c2.5-2.7,4.9-5.5,7.3-8.3c0.4-0.6,0.8-1.1,1.1-1.7
		c1-1.8,2.2-3.5,3.5-5.1c1-1.1,1.9-2.3,2.7-3.6c0.2-0.4,0.5-0.6,0.7-1c0.8-1,1.5-2.2,2-3.4c0.5-1.5,1.2-2.9,2-4.2
		c0.6-1,1.1-2.1,1.6-3.2C398.5,334.5,398.5,334.2,398.4,333.9L398.4,333.9z M375,305.9c0.8-0.6,1.3-1.5,1.2-2.5
		c0.1-1.8-0.2-3.7,1-5.2c0.1-0.3,0.2-0.6,0.1-0.9c-0.4-1.8-0.1-3.6,0.8-5.2c0.2-0.5,0.2-1,0.2-1.5c0-1.8-0.4-3.8,0-5.4
		c0.6-2.1,0-4,0.2-6c0-0.1,0-0.3,0-0.4c0.5-3.1,0.4-6.3-0.3-9.3c-0.1-0.3,0-0.7,0.1-1c0.5-1.5,0.4-3.2-0.4-4.5
		c-0.3-0.7-0.6-1.4-0.8-2.2c-0.7-2.7-1.2-5.6-2.1-8.2c-1.1-3.4-2.4-6.8-4-10c-0.5-1-0.8-2.2-1.3-3.1c-1.2-2.3-2.6-4.5-3.9-6.7
		c-1.2-2.1-2.3-4.2-3.5-6.2c-0.9-1.6-2-3-2.9-4.6c-1.2-2.6-3-4.8-5.2-6.4c-1.8-1.3-3.4-2.9-5.6-3.2c-1.4-0.2-2.7-0.8-4.1-0.6
		c-0.8,0.2-1.7,0.1-2.5-0.1c-2.9-1.1-5.8-0.7-8.7-0.8c-0.5,0.1-1.1,0.2-1.5,0.5c0.1,0.7,0.4,1.3,0.7,1.9c0.8,1.2,1.7,2.4,2.7,3.4
		c3.3,3.4,5.7,7.6,8.1,11.8c1.1,1.9,1.9,4,2.9,5.9s1.8,4,3.5,5.4c3.1,2.3,6,4.9,8.5,7.9c2.3,2.6,4.3,5.4,5.8,8.6
		c0.2,0.5,0.5,0.8,0.7,1.3c0.4,0.8,0.6,1.6,1,2.4c0.7,1.6,1.2,3.3,2,4.9c1,2,2.1,4,3.2,6c0.5,0.7,0.8,1.5,0.9,2.4
		c0.1,2,0.9,3.8,1.5,5.6c0.3,0.8,0.4,1.7,0.5,2.5c0.4,4,1.3,7.8,0.8,11.9c-0.4,3.3,0,6.7,0,10C374.8,304.7,374.9,305.3,375,305.9z
		 M287.3,312c0,3.3,0.6,4,3.2,3.2c2.1-0.8,4.1-1.8,5.8-3.1c1.8-1.4,3.4-2.8,5-4.4c0.4-0.4,0.7-0.8,1-1.3c1.1-1.6,1.8-3.5,1.8-5.4
		c0.1-0.9,0.3-1.9,0.4-2.8c0.4-2.4,0.9-4.9-0.1-7.3c-0.2-0.3-0.2-0.7-0.1-1c0.2-0.8-0.2-1.4-0.3-2.1c-0.4-1.6-1.5-2.7-2.2-4
		c-1.1-2-2.2-4.1-3.5-6c-0.7-1-1.6-1.9-2.5-2.6c-2.4-1.9-4.9-3.6-7.4-5.4c-1.2-0.9-2.3-1.9-3.8-1.8c-0.4,0-0.8-0.4-1.2-0.6
		c-1.8-0.7-3.5-1.2-5.3,0.1s-3.8,2.2-5.6,3.7c-1.4,1.1-3,1.9-4.3,3.2c-0.9,0.9-1.9,1.8-2.8,2.7c-0.8,0.8-1.5,1.6-2.1,2.5
		c-0.6,0.9-0.5,1.3,0.5,1.7c2.9,0.9,5.7,2.1,8.3,3.7c1.2,0.7,2.2,1.8,3.4,2.5c3.1,1.7,4.8,5,6.6,8c1.1,2.1,2.1,4.2,2.9,6.4
		C286.4,305,287.2,308.5,287.3,312z M175.2,238.5c0.7-0.7,1-1.1,1.2-1.4c0.3-0.4,0.6-0.9,1-1.3c1.6-1.5,3.3-2.9,4.9-4.4s3.3-3.3,5-5
		c0.9-0.9,1.6-1.9,2.6-2.6c2.1-1.8,4.6-3.1,6.4-5.3c0.3-0.3,0.6-0.5,1-0.6c1.8-0.5,3.3-1.6,4.3-3.1c0.4-0.4,0.7-0.8,1.2-1.1
		c1.6-1.3,3.8-1.5,5.2-3.3c0.1-0.1,0.4-0.1,0.5-0.2c2.1-0.9,3.9-2.4,5.3-4.2c1.5-1.8,2.9-3.6,4.5-5.2c2.7-2.8,5.4-5.6,8.2-8.1
		c1.2-1.1,2.2-2.4,3.3-3.5c2.4-2.2,4.8-4.3,7.3-6.3c1.7-1.4,3.5-2.4,5.1-3.8c0.9-0.8,2.2-1.2,2.8-2.7c-0.4-0.2-0.7-0.6-1-0.5
		c-2,0.2-3.9,0.5-5.8,1c-1.7,0.4-3.4,1.3-5.1,1.9c-0.8,0.3-1.8,0.3-2.6,0.6c-2,0.8-4,1.5-5.9,2.4c-4.8,2.2-9.7,4.5-14.4,6.9
		c-2.1,1.1-4.1,2.4-6,3.9c-2.1,1.7-4.1,3.6-6.2,5.5c-1.9,1.6-3.8,3.3-5.4,5.2c-2.4,3.1-4.3,6.6-6.7,9.8c-2.4,3.2-4.4,6.6-6.2,10.2
		c-0.9,1.6-1.7,3.3-2.4,5c-0.9,2.6-1.6,5.4-2.3,8.1C175.1,237.1,175.1,237.8,175.2,238.5z M396.3,251.5c0,1.1,0.1,2.1,0.3,3.1
		c0.7,2,0.4,4,0.1,6c-0.3,2.4-0.6,4.9-0.8,7.3c-0.2,1-0.3,2-0.2,3c0.1,2.2,0.5,4.3,0.6,6.5c0.3,4.3,1,8.5,0.9,12.9
		c-0.1,0.9-0.1,1.8,0.1,2.6c0.3,1.6,0.1,3.4-0.8,4.8c-0.7,1.3-1,2.7-1,4.2c0,0.7-0.1,1.3-0.3,1.9c-0.6,2-1.3,3.9-1.8,5.9
		c-0.5,2.3-1.2,4.6-2.2,6.7c-0.5,1.1-0.9,2.4-1.4,3.6c-0.2,0.7-0.6,1.4-1,2c-1.9,2.5-3.8,4.9-5.8,7.2c-3.2,3.7-5.8,8.1-9.1,11.7
		c-1.4,1.5-2.9,3.1-4.3,4.6c-1.2,1-1.6,2.6-1.2,4c0.5-0.1,1-0.3,1.4-0.5c3.4-2,6.9-3.7,10.2-5.8c3-1.9,5.4-4.8,8.6-6.3
		c1.6-0.8,3-2.5,4.4-3.8c2.6-2.5,5.2-4.9,7.7-7.5c1.4-1.3,2.3-3.1,2.5-5c0.1-0.6,0.3-1.1,0.5-1.6c0.7-2.6,2-5,1.7-7.9
		c0.9-1.3,0.7-2.8,0.5-4.3c-0.1-0.4,0.3-0.8,0.4-1.2c0.2-0.3,0.3-0.7,0.3-1c0.1-3.4,0.1-6.7,0.2-10c0.1-2.6-0.6-5.2,0.2-7.8
		c0.1-0.6,0-1.3-0.2-1.9c-0.6-1.1-0.7-2.4-0.4-3.6c0-0.3,0-0.6-0.1-0.8c-0.5-1.7-1-3.5-1.3-5.3c-0.4-2.7-0.6-5.5-1.7-8
		c-0.1-0.3-0.1-0.6-0.2-0.9c-0.5-1.9-1-3.7-1.6-5.5c-0.7-2.1-1.5-4.2-2.1-6.3C399,252.8,397.9,251.6,396.3,251.5L396.3,251.5z
		 M267.8,392.7l0.1-0.7c-0.3-0.2-0.6-0.6-0.9-0.6c-1.4-0.1-2.8-0.7-3.9-1.7c-1.9-1.6-4.2-2.6-6.6-3.2c-4.2-0.9-8-3.4-12-4.8
		c-0.2-0.1-0.3-0.2-0.5-0.3l-2.8-1.8c-0.7-0.4-1.5-0.9-2.2-1.4c-1.4-1.3-3-2.4-4.6-3.5c-2.4-1.3-4.1-3.4-5.9-5.4
		c-1.7-1.8-3.5-3.5-5.3-5.2c-1.1-1-2.3-1.9-3.3-2.9c-1.9-1.9-3.6-3.9-5.4-5.8c-0.7-0.7-1.4-1.3-2.2-1.8c-3.1-2.1-6.2-4-9.2-6.2
		c-0.9-0.7-1.6-1.6-2.4-2.4c-2-2-4.1-3.9-6.1-6c-1.9-2.1-4.2-3.8-6.7-5.2c-0.4-0.1-0.8-0.2-1.3-0.2c-0.1,1.1,0.2,2.1,0.9,3
		c0.3,0.4,0.8,0.9,0.7,1.2c-0.2,1.4,0.7,2.1,1.3,3c0.6,0.9,1.2,1.9,1.6,3c1.5,4.3,4.1,7.7,6.8,11c2.9,3.7,5.9,7.5,8.8,11.2
		c0.1,0.2,0.2,0.4,0.3,0.5c0.6,0.9,1.2,1.7,1.9,2.4c2.4,2.1,4.8,4.2,7.4,6.1c3.1,2.3,6,4.9,9.5,6.4c2.6,1.1,5,2.5,7.4,4
		c1.1,0.7,2.1,1.7,3.2,2.4c2.5,1.4,5.1,2.6,7.7,3.8c1.2,0.7,2.5,1,3.8,1c2.2-0.3,4.4,0.6,6.6-0.4c0.4-0.2,0.9,0.1,1.3,0.1
		c1.5,0.1,3,0.2,4.6,0.2c1.1,0,2.1,0,3.2,0C265.1,392.8,266.4,392.8,267.8,392.7z M309.6,207.5c-0.3-0.7-0.7-1.3-1.2-1.9
		c-1.1-1-2.2-2-3.4-2.9c-1.7-1.4-3.5-2.8-5.4-4c-1.3-0.9-2.9-1.5-4.5-1.7c-2.3-0.1-4.6,0-6.8,0.3c-3,0.3-6,0.5-8.9,1
		c-3.8,0.5-7.6,1.4-11.2,2.7c-1.2,0.6-2.5,1-3.8,1.3c-2.8,0.4-5.5,1.1-8.2,2.2c-2.9,1.1-5.8,2.1-8.7,3.2c-1.5,0.6-2.9,1.3-4.2,2.1
		c-1.9,1.2-4,2-5.4,4c-0.4,0.4-0.8,0.7-1.3,0.9c-1.3,0.9-2.6,1.8-3.8,2.8s-2.7,2.4-4.1,3.6c-0.3,0.4-0.6,0.9-0.8,1.3l0.2,0.4
		c0.8-0.2,1.7-0.4,2.5-0.6c1.8-0.7,3.8-1,5.4-2.5c0.3-0.2,0.7-0.2,1.1-0.3c2-0.5,4-1,5.9-1.6c1.8-0.5,3.5-1.4,5.3-1.8
		c3.7-0.8,7.4-1.4,11.1-2c2.1-0.4,4.3-0.7,6.4-1.2c3.5-0.7,7-1.6,10.5-2.2c3-0.5,6.1-0.7,9.1-1.1c0.4,0,0.8-0.1,1.1-0.3
		c0.9-0.4,1.9-0.5,2.8-0.1c1.3,0.4,2.7,0.4,4,0c1.3-0.4,2.6-0.6,4-0.6c2.7-0.1,5.4,0.1,8,0C306.9,208.8,308.4,209,309.6,207.5
		L309.6,207.5z M223.3,259.3l0.5,0.4c0.4-0.4,0.9-0.7,1.3-1.1c1.6-1.5,3-3.1,4.7-4.5c2.9-2.6,5.9-5.1,8.9-7.5c1-0.8,2.4-1.3,3.2-2.3
		c1.8-2.3,4.2-3.4,6.4-5.1c0.7-0.6,1.5-1.1,2.3-1.6c2.4-1.2,5-2.2,7.4-3.6c3.4-1.9,7.1-2.5,10.7-3.1c2.5-0.4,5.1,0.1,7.6,0.4
		c2.8,0.3,5.7,1.2,8.5,0.2c3.1-1.1,6.3-1.7,9.6-1.7c2.5,0,5.1-0.3,7.6-0.4c1.8-0.1,3.5,0,5.3,0c2.4,0,4.8,0.2,7.2,0.1
		c1.9,0,3.9-0.2,5.8-0.6c-1.4-2.2-3.5-2.6-5-4c-0.1-0.1-0.2-0.1-0.4-0.1c-2.5,0.1-4.5-1.4-6.7-2.3c-1.4-0.6-2.8-1.4-4.1-1.4
		c-2.9-0.1-5.9,0.2-8.8,0.3c-1.4,0.2-2.8,0.2-4.2,0.1c-1.6-0.2-3.2-0.1-4.7,0.5c-1,0.4-2,0.5-3,0.5c-2.2-0.2-4.3,0.1-6.4,0.9
		c-1.8,0.6-3.7,1-5.5,1.3c-2.5,0.4-5.1,0.6-7.6,1c-0.9,0.1-1.8,0.7-2.7,0.9c-1.2,0.3-2.4,0.4-3.5,0.8c-2.1,0.7-4.2,1.5-6.4,2.4
		c-1.6,0.7-3,2.1-4.8,2.4c-1.1,0.2-2.2,1.1-3.2,1.7c-1.5,0.6-2.8,1.6-3.8,2.8c-0.5,0.7-1.2,1.2-2,1.6c-2.7,1.6-5,3.8-6.7,6.4
		c-0.9,1.2-1.5,2.5-2.4,3.7c-1.2,1.8-2.7,3.5-3.8,5.5C223.7,255.4,223.2,257.4,223.3,259.3L223.3,259.3z M283.7,310.6L283.7,310.6
		c0-1.1,0-2.2,0-3.3c0-0.5-0.1-1.3-0.3-1.4c-1.4-0.7-1.3-2.1-1.5-3.5c-0.1-0.7-0.4-1.4-0.7-2c-0.5-1.3-1.1-2.6-1.7-3.9
		c-0.8-1.2-1.6-2.4-2.5-3.5c-0.6-0.7-1.3-1.4-2-2c-1.1-1.2-2.4-2.3-3.8-3.3c-1.2-0.7-2.7-0.3-3.6-1.9c-0.2-0.3-1-0.2-1.5-0.4
		c-0.8-0.1-1.6-0.4-2.3-0.8c-0.7-0.7-1.8-0.8-2.6-0.2c-2,1.1-3.7,2.8-4.7,4.9c-1.6,2.8-2.9,5.7-3.9,8.7c-0.3,1-0.3,2-0.6,3
		s-0.8,1.6-0.2,2.4c0.5,0.7,1,1.4,1.6,2.1c1.9,1.7,4.1,3.2,6.4,4.4c1.9,1.1,3.9,2,6,2.8c3.2,1.1,6.5,1.9,9.8,2.9
		c2.2,0.7,4.4,0.3,6.6,0.2c1,0,1.4-0.8,1.5-1.9L283.7,310.6z M306.2,216c1.1,0.5,2.3,1,3.5,1.4c1.2,0.3,2.5,0.3,3.7,0.7
		c1.8,0.6,3.5,1.5,5.2,2.3c0.5,0.2,1.1,0.4,1.6,0.5c0.3,0,0.6-0.2,0.8-0.4c0.1-0.3,0.1-0.7-0.1-1c-1.7-2.3-3.4-4.5-5.2-6.7
		c-0.6-0.9-1.6-1.3-2.6-1.2c-1.6,0.3-3.1,0.7-4.7,0.9c-1.3,0.2-2.7,0.3-4,0.3c-0.8,0-1.6-0.4-2.4-0.4c-2.7,0.1-5.3,0.3-8,0.5
		c-3.2,0.3-6.5,0.6-9.7,1c-0.4,0-0.8,0-1.1,0c-2.6,0.2-5.2,0.3-7.8,0.5c-0.8,0.1-1.5,0.6-2.3,0.8c-2.4,0.5-4.8,0.9-7.1,1.3
		c-3.3,0.5-6.6,1.8-10,1.6c-0.4,0.1-0.9,0.2-1.3,0.4c-0.8,0.3-1.7,0.6-2.5,0.9c-1.8,0.4-3.6,0.7-5.4,1.1c-1.1,0.2-2.2,0.6-3.3,1
		c-0.7,0.2-1.3,0.4-2,0.6c-2,0.8-4.1,1.7-6.1,2.5c-2.4,1-4.9,1.9-7.4,2.9c-0.8,0.3-1.7,0.6-2.5,1c-1.3,0.6-2.9,0.8-3.8,2.3
		c-0.6,1-1.3,2-2,2.9s-1.2,1.7-1.7,2.6c-1,1.9-1.9,4-3,5.8c-2.5,4.1-4,8.6-4.6,13.3c0,0.7,0,1.3,0.1,2c1.6-1.3,3.1-2.7,4.5-4.1
		c2-2.3,3.9-4.8,5.9-7.1c0.4-0.5,0.8-0.9,1.3-1.3c1.6-1.4,3.1-2.8,4.7-4.2c1.2-1,2.5-1.9,3.9-2.7c1-0.6,1.8-1.3,2.5-2.2
		c1.2-1.5,2.6-2.9,4.2-4c1.8-0.9,3.5-2.1,5.1-3.4c1.3-0.9,2.6-1.8,4-2.5c2.3-1.5,4.7-3,7.4-3.4c0.4-0.1,0.9-0.3,1.3-0.5
		c3.1-1.2,6.1-2.5,9.5-2.2c0.6-0.1,1.2-0.3,1.8-0.6c1.1-0.5,2.3-0.9,3.5-1.2c4-0.6,8-1,12-1.4c2.1-0.2,4.2-0.4,6.3-0.5
		c1.8-0.1,3.5-0.2,5.3-0.2c1.6,0,3.2,0.1,4.8,0.2c0.4,0,0.9,0,1.3,0c1.1,0,2.2,0.1,3.2,0.2C304.1,216.7,305.4,217,306.2,216z
		 M369.9,313.2c-0.3-1.2-0.2-1.2,0.2-2.8c0.1-0.5,0.2-1,0.1-1.5c-0.3-1.9-0.2-3.8,0.4-5.6c0.1-0.3,0.1-0.6,0.1-0.9
		c-0.6-3.6-1.2-7.3-1.9-10.9c-0.3-1.3-1.1-2.3-2.3-2.8c-0.2,0.3-0.3,0.7-0.4,1.1c-0.7,3.7-3,6.6-4,10.1c-0.1,0.3-0.3,0.6-0.5,0.9
		c-0.8,1.4-1.6,2.8-2.3,4.3c-1.1,2.2-2.1,4.5-3.3,6.6c-0.9,1.6-2,3.2-3.1,4.7c-1.9,2.6-3.8,5.1-5.7,7.6c-0.3,0.3-0.5,0.7-0.6,1.1
		c-0.2,1.4-0.3,2.9-0.4,4.3c-0.1,2.5-0.1,5.1-0.3,7.6c-0.1,1.7-0.4,3.3-0.5,5c0,0.4,0.1,0.8,0.4,1.1c0.4,0.1,0.7-0.1,1-0.4
		c1-1.8,2.5-2.6,3.9-3.7c2.9-2.5,5.6-5.3,8.1-8.2c1.4-1.6,2.6-3.4,4-4.9c2.7-2.7,4.6-6,5.6-9.7C368.8,315.2,369.3,314.2,369.9,313.2
		L369.9,313.2z M226.2,308.6c0.7-1.7,1.2-2.9,1.7-4.1c0.4-1,0.9-1.9,1.4-2.9s0.8-2,1.3-2.9c1-2.1,2.3-4.1,1.3-6.7
		c-0.2-0.5-0.3-1.1-0.2-1.7c0.3-2.6-0.8-5-1.1-7.4c-0.4-2.7,0.1-5.3-0.2-8c0-0.4,0.1-0.9,0.2-1.3c0.3-1.1,0.5-2.3,0.8-3.4
		c0.2-0.5,0.4-1,0.7-1.5c0.3-0.5,0.5-1,0.7-1.5c0.6-2.2,1.8-4.3,3.4-5.9c1.3-1.3,2.5-2.7,3.6-4.2c1.4-1.6,2.7-3.4,4.5-4.3
		c1-0.5,2-1,2.9-1.6c2.3-1.4,4.5-3,6.9-4.2s3.8-3.1,5.5-4.9c0-0.1,0-0.3-0.1-0.6c-0.4,0-0.8,0.1-1.2,0.2c-1.5,0.5-2.9,1.1-4.4,1.5
		c-1.6,0.3-3,1.1-4,2.4c-0.4,0.4-0.8,0.7-1.3,0.9c-1.7,0.9-3.5,1.8-5.2,2.8s-3.4,2.3-5,3.6c-0.9,0.9-1.9,1.7-2.9,2.5
		c-2.5,1.4-4.3,3.8-6.3,6c-2.5,2.8-4.7,5.9-7.1,8.8c-1.2,1.5-1.9,3.4-1.9,5.3c-0.1,3.7-1,7.4,0.3,11c0,0.3,0.1,0.6,0.1,0.9
		c0.2,1.5,0.3,3.1,0.7,4.5c0.7,3.2,1.3,6.5,2.7,9.5c0.2,0.6,0.4,1.2,0.4,1.9c0.2,1.1,0.4,2.3,0.8,3.4
		C225.4,307.3,225.8,307.9,226.2,308.6L226.2,308.6z M322.7,180.8c-0.3-1.2-0.7-2.2-0.9-3.1c-0.5-2.8-2.5-4.6-3.8-6.9
		c-0.3-0.5-1.1-0.7-1.6-1.1c-0.4-0.2-1-0.4-1-0.8c-0.3-1.3-1.2-1.6-2.1-1.9c-0.6-0.3-1.3-0.7-1.8-1.2c-0.9-0.7-1.7-1.6-2.9-1.2
		c-0.2,0.1-0.5-0.1-0.7-0.1c-3-0.6-6-1.3-9-1.9c-1.4-0.3-2.8,0.2-4.1-0.9c-0.2-0.2-0.6,0-0.9,0c-4.9,0.5-10,0.2-14.6,2.7
		c-0.9,0.3-1.8,0.6-2.8,0.7c-0.6,0.2-1.2,0.4-1.8,0.6c-1.7,0.8-3.4,1.6-5.1,2.4l-2.2,1.1c0.7,0.4,1,0.7,1.4,0.7
		c1.1,0.1,2.3,0,3.4,0.1c2.9,0.2,5.8,0.5,8.7,0.8c0.2,0,0.4,0.2,0.5,0.2c1.6,0.3,3.2,0.5,4.9,0.8s3,0.6,4.5,0.9
		c0.4,0.1,0.8,0.4,1.1,0.3c1.7-0.4,3.3,0.3,4.8,0.9c1.6,0.7,3.2,1.3,4.9,1.6c2.4,0.4,4.5,1.6,6.8,2.2c2.5,0.7,4.9,1.8,7.3,2.4
		C318,180.9,320.4,181.1,322.7,180.8L322.7,180.8z M383.4,292l0.6,0.2c0.6-1,1.1-2.1,1.6-3.2c0.6-1.5,0.9-3,1.4-4.5
		c1.4-3.7,2-7.7,1.9-11.7c0-0.1,0-0.3,0-0.4c1.1-1.4,0.7-3.2,0.9-4.8c0.3-3.7,0.1-7.5-0.7-11.1c-0.4-2.4-1.3-4.7-2-7.1
		c-0.3-1.5-0.8-3-1.6-4.4c-0.3-0.6-0.4-1.2-0.5-1.9c-0.2-0.7-0.5-1.4-0.7-2c-0.4-0.9-0.7-1.9-1.1-2.8c-1-3-2-6-4-8.3
		c-0.9-1-1.7-2-2.4-3.1c-1.5-2.2-3.4-4.1-5.6-5.5c-2.7-1.7-5.4-3.1-8.3-4.3c-0.3-0.1-0.8,0.2-1.2,0.3c0,0.4,0.1,0.8,0.3,1.2
		c0.6,0.9,1.4,1.7,2.1,2.6c0.6,0.9,1.2,1.8,1.9,2.7c2,2,3.5,4.5,4.4,7.2c0.1,0.3,0.3,0.6,0.5,0.9c0.4,0.6,0.8,1.3,1.1,2
		s0.7,1.5,1.2,2.2c1.7,2.5,3.2,5.2,4.3,8c0.8,2,1.7,3.9,2.5,5.9c1,2.6,2,5.2,2,8.1c0,0.1,0.1,0.3,0.1,0.4c0.6,2.1,1.3,4.1,1.8,6.2
		c0.9,4.1,1.5,8.3,0.4,12.5c-0.1,1.1,0,2.3,0.2,3.4c0.1,0.9,0.2,1.8,0.1,2.8c-0.3,2.2-0.8,4.4-1.1,6.7
		C383.3,290.8,383.3,291.4,383.4,292z M287.6,234.8l-0.1,0.7c0.8,0.3,1.5,0.7,2.1,1.1c2.9,2.6,6.3,3.7,9.7,5
		c1.3,0.5,2.6,1.2,3.9,1.9c0.6,0.4,1.2,0.8,1.9,1.1c3.3,1.1,6,3.5,9,5.3c1.8,1.1,3.4,2.6,5.6,1.8c1.2-0.4,2.4-0.6,3.6-0.8
		c0.9-0.1,1.6-0.8,1.6-1.8c0.2-1.4,0.5-2.9,0.6-4.3c0.3-2.8,0.7-5.6,0.9-8.5c0.1-1.6-0.1-1.9-1.4-2.5c-1.6-0.7-3.5-1-5.2-0.7
		c-1,0.1-2,0.1-3-0.1c-0.5-0.2-1-0.2-1.5-0.2c-2.7,0.8-5.4-0.5-8.1,0.3c-0.7,0.2-1.5-0.3-2.2-0.4s-1.5-0.3-2,0
		c-1.1,0.7-2.5,1-3.8,0.6c-0.3,0-0.6,0-1,0.1c-1.7,0.1-3.4,0.2-5.1,0.2C291.2,233.6,289.4,234,287.6,234.8L287.6,234.8z
		 M284.5,253.9c-0.3-0.4-0.4-0.7-0.6-0.8c-2.2-1.4-4.5-2.8-6.7-4.1c-0.4-0.2-0.9-0.3-1.3-0.3l-2.1-0.4c-1.4-0.2-2.8-0.8-4.1-0.6
		c-3.1,0.5-6.1,1.1-9.1,1.9c-1.8,0.4-3.6,1-5.2,1.9c-2.9,1.6-4.2,5.2-6.6,7.5c-0.1,0-0.1,0.1-0.1,0.2c-0.4,1.8-1.5,3.2-2.1,4.8
		c-1.8,4.6-3.4,9.3-5,14c-0.1,0.3-0.2,0.5-0.2,0.8c0.1,0.5,0.2,0.9,0.4,1.4c0.9-0.2,1.7-0.8,2.1-1.7c2.1-3.2,4.4-6.2,7.4-8.3
		c0.2-0.1,0.3-0.3,0.4-0.4c2.6-2.2,5.1-4.8,7.9-6.4c4-2.3,8.4-3.8,12.6-5.7c0.7-0.3,1.5-0.4,2.2-0.8c3-1.4,5.9-2.7,9.2-2.9
		C283.7,254.2,284.1,254.1,284.5,253.9L284.5,253.9z M325.6,275.7l-0.5,0.3c0.2,0.6,0.4,1.1,0.6,1.6c0.5,0.9,1,1.9,1.3,2.9
		c0.7,2.4,1.3,4.9,1.7,7.4c0.7,5.2,0.5,10.5-0.7,15.6c-0.9,4.6-2.4,9.1-4.3,13.4c-0.4,0.8-0.6,1.6-0.7,2.5c0,1.9,0.1,3.8,0.2,5.7
		c0.1,1.6,0.7,2.1,2,1.4c2.1-1.1,4.2-2.5,6.3-3.6c3-1.7,4-5.4,6.2-7.9c0.4-0.5,0.3-1.6,0.4-2.5c0.1-0.4,0.3-0.8,0.5-1.2
		c0.3-0.8,0.6-1.6,0.7-2.5c0.3-3,0.1-6.1-0.8-9.1c-0.8-3.4-1.6-6.9-3.6-9.7c-0.1-0.2-0.2-0.5-0.2-0.8c-0.2-2.9-2.4-4.5-3.6-6.8
		c-1.2-1.9-2.5-3.6-3.9-5.3C326.6,276.7,326.1,276.2,325.6,275.7L325.6,275.7z M294.8,177.7c-0.1-1.2-0.8-1.3-1.4-1.4
		c-1.2-0.2-2.4-0.4-3.6-0.7c-1.7-0.5-3.3-0.8-5-1.1c-2.2,0-4.3-0.5-6.4-1.2c-0.6-0.3-1.2-0.4-1.9-0.3c-1.9,0.6-3.8,0.1-5.7-0.2
		c-1.1-0.3-2.3-0.4-3.4-0.4c-3,0.2-5.9,0.5-8.9,0.9c-1,0.2-2,0.5-2.9,1.1c-3.4,2-6.6,4.3-10,6.2c-3.2,2-6.2,4.4-8.9,7.1
		c-0.6,0.6-1.1,1.5-1.8,2c-3.5,2.4-6,6.2-9.5,8.7c-1.6,1.2-2.9,3.1-4.2,4.7c-0.3,0.5-0.5,1-0.6,1.5c1.5-0.7,2.7-1.2,3.9-1.9
		c2.5-1.5,5.3-2.6,7.3-5.2c1.4-1.8,3.4-2.9,5-4.3c2.6-2.3,5.4-4.3,8.7-5.1c0.3-0.1,0.5-0.1,0.7-0.3c2.2-1.4,4.3-3.1,7-3.2
		c0.4,0,0.7-0.4,1-0.5c1.9-0.8,3.8-1.6,5.7-2.2c1.9-0.6,3.9-0.8,5.8-1.1c0.5-0.1,1-0.3,1.5-0.4c1.1-0.4,2.3-0.8,3.5-1.1
		c4.5-0.9,9.1-1.3,13.7-1.3c2-0.1,4.1-0.1,6.1,0.1C292,178.2,293.5,178.1,294.8,177.7L294.8,177.7z M399.6,244.2l-0.4,0.3
		c0.5,1.7,1.2,3.3,2,4.8c0.4,0.7,0.7,1.4,0.9,2.1c0.2,0.5,0.2,1.1,0.4,1.7c2.1,5.5,4.2,10.9,5.2,16.9c0.1,0.3,0.2,0.7,0.3,1
		c1.4,3.9,1.5,8.1,2,12.2c0.4,2.9-0.1,5.9,0.6,8.9c0.2,1.3,0.2,2.6,0.1,3.9c0,1.2-0.2,2.5-0.3,3.7c-0.2,2.5-0.3,5.1-0.5,7.7
		c-0.1,1.4-0.3,2.7-0.3,4.1c0,0.4,0.2,0.8,0.5,1c0.4,0,0.7-0.2,0.9-0.5c1.1-2.5,3-4.5,3.6-7.4s1.6-5.4,1.6-8.3
		c0.1-1.4,0.3-2.9,0.6-4.3c0.3-1.1,0.4-2.3,0.4-3.4c-0.3-3.8-0.2-7.7-1.7-11.3c-1-2.4-1.5-5-2.3-7.4c-0.9-2.8-1.2-5.9-2.8-8.5
		c-2.1-3.7-2.9-8.4-6.3-11.2c-0.1-0.1-0.2-0.2-0.2-0.4c-1-2-2.4-3.8-4-5.3C400.1,244.3,399.8,244.3,399.6,244.2L399.6,244.2z
		 M345.5,307.2c0.9-3.4,3.2-6,4.3-9.4c1.1-3.3,1.2-6.7,1.8-10c0.5-2.5,0.2-5.2,0.4-7.8c0.1-2.3,0.4-4.6,0.6-7c0-0.3,0.1-0.6,0.1-0.9
		c0.6-1.5,0.1-2.9-0.5-4.2c-0.3-0.8-0.8-1.5-1.2-2.2c-1.9-3.8-5.1-5.5-8.3-7.2c-0.1-0.1-0.4,0.1-0.6,0.2c-0.5,1.7,0,3.3,0.2,4.9
		c0.5,4.8,1.7,9.5,1.2,14.3c0,0.6,0.1,1.2,0.2,1.7c0.2,1.5,0.5,2.9,0.5,4.3c0.1,3.6-0.4,7.1-0.1,10.7c-0.1,0.8-0.2,1.6-0.4,2.4
		c-0.1,0.9-0.2,1.9-0.1,2.8c0.1,2,0.4,4,0.6,6C344.4,306.6,344.5,307.2,345.5,307.2L345.5,307.2z M392.8,284.5l-0.3-0.1l-3.7,8.6
		c-0.1,0.2-0.1,0.4-0.1,0.6c-0.4,2-1,3.9-2,5.6c-2.3,3.8-3.5,8.2-6,11.9c-1.6,2.4-2.4,5.4-3.5,8.2c-0.2,0.5-0.4,1.1-0.7,1.6
		c-1.3,2.2-2.6,4.3-3.9,6.5c-0.4,0.6-0.6,1.3-0.9,1.9c-0.7,1.8-1,3.7-0.8,5.5c0,1,0,2.1,0,3.6c0.8-0.5,1.4-0.7,1.7-1.2
		c0.9-1.6,2.3-2.5,3.3-4.2c1.6-2.8,3.9-5.2,5.8-7.8c1.4-1.9,2.8-3.8,4-5.8c1.1-1.6,2-3.4,2.8-5.2c0.9-1.9,1.5-3.8,1.9-5.9
		c0.3-2.6,0.9-5.1,1.3-7.6c0.4-2.2,0.8-4.4,1.3-6.5c0.3-1.3,0.6-2.5,0.8-3.8c0.1-0.3,0.1-0.6,0.1-0.8
		C393.5,288,393.1,286.3,392.8,284.5L392.8,284.5z M269.2,347v0.5l5.1,2.9c0.1,0.1,0.2,0.1,0.4,0.1c2.9,0.9,6,1.3,9.1,1.1
		c3.3-0.4,6.6-0.2,9.9-0.4c2.2,0,4.4-0.4,6.4-1.2c1.7-0.9,3.4-1.5,5.2-1.9c3.3-0.7,6.5-1.7,9.6-3c1.6-0.7,2.8-2.2,3.1-3.9
		c0.4-1.5,0.6-3,0.8-4.5c0.2-1.3-0.5-2.1-1.6-1.9c-0.3,0-0.6,0.2-0.9,0.3c-2.3,1.3-4.6,2.8-7,4c-1.3,0.6-2.6,1.2-3.9,1.6
		c-0.8,0.3-1.6,0.5-2.4,0.7c-2.4,0.8-4.9,1.5-7.3,2.4s-4.6,1.6-7,2.3c-0.5,0.1-1,0.1-1.4-0.1c-1-0.6-2.2-0.8-3.4-0.5
		c-3,0.5-6,0.6-8.9,0.4C272.9,345.7,271.1,346.6,269.2,347z M193.5,312c0.4-0.8,0.5-1.8,0.1-2.6c-0.3-1-0.3-2.2-0.5-3.2
		c-0.3-1.3-0.6-2.6-1-4c-0.1-0.5-0.5-1-0.6-1.6c-0.1-1.1-0.6-2-1.4-2.8c-0.3-0.4-0.4-0.8-0.4-1.3c-0.1-2.1-0.5-4.3-1.2-6.3
		c-0.7-1.9-1.2-3.9-1.4-5.9c-0.3-1.7-0.4-3.5-0.6-5.2c-0.3-2.5-0.5-4.9,0.6-7.3c0.2-0.4,0.3-0.8,0.3-1.3c0.2-2.1,0.4-4.2,0.6-6.3
		c0-0.3,0.1-0.7,0.3-1c1.1-3.1,2.2-6.2,3.3-9.3c0.5-1.4,1.1-2.8,1.7-4.1c0.8-1.6,1.6-3.1,2.4-4.7c0.4-0.6,0.8-1.1,0.4-2
		c-0.9-0.1-1.7,0.4-2,1.3c-0.5,1.1-1.1,2.1-1.8,3c-1.5,1.9-2.6,4.1-3.1,6.4c-1.2,4-2.5,8.1-3.8,12.1c-0.2,0.7-0.3,1.4-0.4,2.1
		c-0.3,2.4-0.8,4.9-1,7.3c-0.3,3.1-0.7,6.2-0.1,9.4c0.4,2.1,0.5,4.2,0.4,6.3c-0.1,2.9,0.4,5.8,1.3,8.6c0.8,2.3,1.3,4.8,1.3,7.2
		c-0.1,1.5,0.3,3,1.1,4.3c1,1.5,1.7,3.2,2.1,4.9c0.4,1.4,0.9,2.9,1.6,4.2c1.2,2.6,2.6,5.2,3.9,7.7c0.3,0.5,0.9,0.9,1.6,1.6
		c-0.1-2.6,0-4.7-0.3-6.8c-0.3-1-0.6-2-1.1-3c-0.3-1-0.5-2-0.8-2.9C194.7,315.4,194.2,313.9,193.5,312z M278.9,335.3v-0.5
		c-0.4-0.2-0.8-0.3-1.2-0.4c-2.5,0-5.1,0-7.6,0.1c-4,0.3-8-0.7-11.3-2.9c-0.2-0.1-0.4-0.1-0.5-0.2c-1.4-0.6-2.8-1.4-4-2.4
		c-2.6-2.4-4.9-5-5.8-8.9c-0.4-1.1-0.9-2.2-1.6-3.2c-1.2-2-2.6-3.7-4.2-5.3c-0.5-0.6-1-1.3-1.4-2c-0.3-0.4-0.7-0.8-1.3-1.5
		c-0.3,0.9-0.4,1.7-0.6,2.6c-0.2,5.6,0.3,11.2,1.4,16.7c0.6,2.8,2,4.5,4.3,5.3c2.6,0.8,5,2.3,7.7,2.4c0.5,0.1,1,0.3,1.5,0.5
		c0.8,0.3,1.6,0.6,2.4,0.8c3.8,0.6,7.6,0.7,11.4,0.3c0.7-0.1,1.4-0.1,2.1,0C273.1,337.1,275.9,335.7,278.9,335.3L278.9,335.3z
		 M250.2,312.3c0.9,1.5,1.2,3.4,2.7,4.3c1.2,0.7,2.2,1.7,3.4,2.5c1.4,1,2.9,1.9,4.3,2.7c2.5,1.4,5,2.5,7.4,3.9
		c1.6,0.9,3.4,1.5,5.3,1.7c0.8,0.1,1.6,0.3,2.4,0.6c1.5,0.5,2.9,1.2,4.4,1.6c0.6,0.2,1.3,0.1,1.8-0.3c1.1-1,1.9-2.4,2-3.9
		c0.1-1.6,0.1-3.1,0.2-4.9c-1.2-1.3-1.2-1.3-2.9-1c-0.4,0.1-0.8,0.1-1.1,0c-2.9-0.4-5.8-0.2-8.6-1.4c-2.6-1.1-5.4-1.5-8.1-2.4
		c-3.1-1-6-2.6-8.5-4.7C253.4,310,251.4,310.5,250.2,312.3L250.2,312.3z M361.2,358.5c-1.2-0.9-2.2-0.4-3.3-0.3
		c-0.9,0.1-1.7,0.1-2.6-0.1c-0.6-0.2-1-1.1-1.9-0.5c-0.7,0.4-1.3,0.8-1.9,1.3c-0.5,0.6-1,1.2-1.7,1.7c-1.3,0.9-2.4,1.9-3.4,3
		c-2.2,2.5-4.4,5.1-6.6,7.6c-1.5,1.7-3.5,3-4.4,5.4c-0.1,0.4-0.6,0.6-0.9,0.8c-1,1-2.1,1.9-3,2.9c-0.2,0.2-0.2,0.7-0.4,1.2
		c0.4,0.1,0.9,0.1,1.3,0.1c3.6-1.2,7.3-2.2,10.7-3.9c3.5-1.8,6.7-4.3,9.2-7.3c0.4-0.5,0.9-1,1.5-1.4c1.2-0.9,2.2-2,3-3.3
		c0.7-1.2,1.5-2.3,2.5-3.2C360.4,361.4,360.6,359.9,361.2,358.5L361.2,358.5z M298.7,330c0.6,0.3,1.3,0.4,1.9,0.5
		c1.6-0.2,3.3-0.4,4.9-0.7c0.8-0.1,1.6-0.5,2.3-1c3.1-2.6,6.5-4.7,8.6-8.5c0.2-0.3,0.4-0.5,0.7-0.7c1.4-1,1.8-2.7,2.3-4.2
		c0.4-1.2,0.4-2.5,0-3.6c-0.8-1.8-0.6-3.5-0.8-5.3c-0.2-2-0.5-3.9-0.8-5.9l-0.5-0.1c-0.3,0.5-0.7,0.9-0.9,1.5
		c-0.6,1.5-1.1,3.1-1.8,4.6c-0.8,2-1.8,3.8-2.9,5.6c-1.8,2.7-4.4,4.7-5.2,8.3c-0.2,0.5-0.6,1-1,1.3c-1.2,1.4-2.5,2.7-3.7,4.1
		c-0.6,0.7-1.3,1.4-1.8,2.1C299.6,328.5,299.3,329.1,298.7,330L298.7,330z M195.7,281c0.2-0.2,0.3-0.5,0.4-0.8
		c0.9-3,2.1-5.9,3.4-8.7c0.8-1.6,1.4-3.3,1.7-5.1c0.5-3.6,1.5-7.2,2.9-10.6c0.8-2.4,1.4-4.9,1.7-7.4c0.2-1.7,0.3-3.3,0.1-5
		c0-1.2-0.6-1.6-1.5-1c-0.8,0.5-1.5,1.2-2.1,1.8c-2.7,2.7-3.7,6.6-5.2,10.1c-1.1,2.8-1.9,5.7-2.6,8.7c-0.1,0.5-0.2,1-0.2,1.5
		c-0.1,2.5-0.1,5.1-0.3,7.6c-0.2,3,1,5.7,1.4,8.5C195.3,280.8,195.4,280.8,195.7,281L195.7,281z M173.4,256.5
		c0.3-0.2,0.6-0.5,0.8-0.8c0.5-1.2,1.2-2.4,1.9-3.5c2.1-2.5,3.1-6,5.8-8c0.3-0.3,0.6-0.6,0.8-1c1.3-2,2.6-4.1,4-6.1
		c0.6-0.9,1.2-1.7,1.9-2.5c2.1-2.7,4.4-5.2,6.9-7.5c0.3-0.4,0.6-0.7,0.9-1.1c0.5-0.7,1.1-1.4,1.6-2.1c1.2-1.4,2.5-2.7,3.7-4.1
		c0.2-0.3,0.3-0.7,0.4-1c-0.4-0.1-0.7-0.2-0.9-0.1c-2,1.2-4,2.5-6.1,3.8l-1.2-0.3c-0.5,1.8-1.8,3.4-3.5,4.2
		c-1.1,0.7-2.1,1.6-2.9,2.7c-1.1,1.2-2,2.7-3.8,3.1c-0.6,0.1-1.1,1.1-1.5,1.8c-1.1,1.9-2.2,3.9-4.3,4.6c-0.8,0.3-1.5,0.9-1.9,1.6
		c-1.3,3.1-2.1,6.4-2.6,9.8c-0.2,1.3-0.3,2.6-0.3,3.9C173,254.8,173.1,255.7,173.4,256.5L173.4,256.5z M232.3,330.2
		c-0.2-0.4-0.5-0.7-0.8-1c-1.9-1.9-3.5-4.2-4.5-6.7c-0.4-1-0.6-2.1-1.1-3c-0.8-1.7-1.7-3.4-2.6-5.1c-2.4-4.5-4.4-9.2-6.2-14
		c-0.1-0.3-0.2-0.6-0.3-0.8c-0.5-1-1.3-1.1-1.8-0.1c-0.5,1.1-0.8,2.3-1,3.5c-0.3,1.3-0.4,2.7-0.6,4.1c-0.3,1.4-0.3,2.9,0.2,4.3
		c1.1,3,1.8,6.2,3.1,9.1c0.5,1.3,1.4,2.5,2.6,3.3c1.8,1.1,3.5,2.3,5.2,3.5c1.1,0.7,2.3,1.4,3.5,2.1c0.8,0.4,1.6,0.7,2.4,1.1
		C231.1,330.5,231.5,331.1,232.3,330.2L232.3,330.2z M254.6,358.3c-0.5,1.3-0.1,1.8,0.6,2c3.2,1.3,6.4,2.9,10,2.2
		c0.4-0.1,0.9,0,1.3,0.1c3.8,1.4,7.7,1,11.5,1.7c0.5,0,1,0,1.5-0.1c1.6-0.2,3.2-0.2,4.8-0.1c4.2,0.7,8.2-0.9,12.3-1
		c0.3-0.1,0.6-0.2,0.9-0.3c0.5-0.1,1-0.2,1.5-0.2c2-0.1,4-0.3,6-0.7c2.5-0.5,4.9-1.4,7.4-2.2c0.7-0.2,1.4-0.5,2-0.9
		c1.4-0.9,2.4-2.3,2.8-3.9c0.2-1.1,0.4-2.1,0.6-3.2c-0.6-1.1-1.5-0.7-2.1-0.2c-1.3,0.9-2.7,1.5-4.3,1.7c-0.3,0-0.6,0.2-0.9,0.3
		c-3.2,1.9-6.6,3.4-10.1,4.4c-4.6,1.2-9.1,2.8-13.8,3.1c-1.1,0.1-2.2,0.5-3.4,0.6c-2.1,0.2-4.3,0.3-6.5,0.4c-1.2,0.1-2.4,0-3.6,0
		c-1.6,0-3.3-0.1-5-0.1c-2.1,0.1-4.2-0.3-6.2-1.1C259.5,360.1,257.1,359.2,254.6,358.3L254.6,358.3z M342.1,329.8
		c-0.5,0.6-1,1.3-1.5,2c-0.8,1.5-1.4,3.1-2.3,4.5c-1.4,2-2.8,3.9-4.5,5.7c-1.6,1.8-3,3.8-5.3,4.5c-1.4,0.5-2.8,1.1-4.1,1.7
		c-1.3,0.4-2.3,1.4-2.8,2.7c-0.4,1.5-0.8,3.1-1,4.6c0,0.5,0.1,1,0.3,1.5c1.7-0.1,3.4-0.4,4.9-1.1c2.5-1.3,5.1-2.4,7.8-3.3
		c1.5-0.5,3-1.2,4.3-2.1c0.6-0.4,1-1,1.2-1.6c1-3.1,1.8-6.3,2.5-9.6c0.5-3,0.5-6,0.8-9C342.5,330.4,342.4,330.3,342.1,329.8
		L342.1,329.8z M309.6,307.6c0.3-0.2,0.6-0.2,0.6-0.4c0.9-1.5,1.6-3,2.3-4.5c1.1-2.7,2.1-5.5,2.9-8.3c0.4-1.4,0.5-2.9,0.2-4.3
		c-1-3.5-1.1-7.4-2.8-10.6c-0.1-0.3-0.2-0.6-0.2-0.9c-0.5-2.1-1.1-4.2-1.6-6.2c-0.2-0.5-0.4-0.9-0.7-1.3c-0.4-0.8-0.8-1.6-1.2-2.5
		c-0.7-2-2.2-3.7-4.2-4.5c-0.5-0.2-1-0.2-1.4,0.1c-0.3,0.2-0.3,1-0.2,1.5c0.1,0.6,0.4,1.2,0.7,1.8c0.7,1.5,1.4,3,1.9,4.5
		c0.9,3.2,1.3,6.5,2.3,9.7c1.2,3.9,0.6,8,1.3,11.9c0.5,2.8,0,5.8,0,8.8C309.6,304.1,309.6,305.8,309.6,307.6z M210.4,294.4l0.6,0.1
		c0.3-0.4,0.5-0.9,0.6-1.4c0.5-3.7,1.1-7.5,1.5-11.2c0.2-2.5,0.1-5,1.6-7.1c0.1-0.1,0.1-0.3,0.2-0.4c1-2,0.9-4.6,2.3-6.4
		c0.2-0.2,0-0.7,0.1-1.1s0.1-1,0.2-1.5c0.8-3.5,1.6-6.9,2.3-10.4c0.1-0.6,0.1-1.3,0.1-1.9c-0.6,0.2-1.1,0.2-1.4,0.5
		c-1.9,1.8-3.8,3.7-5.6,5.6c-0.5,0.6-0.8,1.3-1.1,2c-0.4,1-0.9,2.1-1.3,3.1c-0.6,1.6-1.6,3.1-1.7,4.8c-0.2,3.3-0.2,6.7,0,10
		c0.1,2.1,0.4,4.2,0.6,6.3c0.2,2.4,0.3,4.8,0.5,7.2C210,293.2,210.2,293.8,210.4,294.4z M339.7,284.5c0.6-1.5,0.9-3.2,0.8-4.8
		c-0.4-3.3-0.6-6.6-1-10c-0.4-3.5-1-6.9-1.5-10.3c-0.1-1.5-1.2-2.7-2.6-3.2c-2.3-0.8-4.7-0.6-7-0.5c-0.9,0-1.4,0.7-1.5,1.7
		c0,0.7,0,1.4-0.1,2.2c-0.8,1.9,0.2,2.8,1.2,3.9c2.5,3,5.1,6.1,6.6,10.1c0.7,1.8,1.4,3.6,2.1,5.4c0.5,1.1,0.9,2.2,1.4,3.3
		C338.6,283.1,338.8,284.1,339.7,284.5z M269.4,243.6c0.2,0.1,0.2,0.3,0.3,0.3c0.5,0.1,1,0.1,1.5,0.1c3,0.1,5.9,0.5,8.6,2.4
		c0.8,0.5,1.6,0.7,2.5,0.6c1,0,1.9,0.3,2.7,0.8c1.5,0.9,3,1.8,4.6,2.6c1.9,0.9,3.7,2.2,5.1,3.8c0.7,0.7,1.5,1.4,2.3,1.9
		c1.2,0.7,2.7,0.7,3.9,0c0.6-0.2,1-0.9,0.8-1.6c0-0.1-0.1-0.2-0.2-0.3c-0.6-1.3-1.4-2.5-2.5-3.6c-2.4-2.2-4.6-4.6-6.9-6.9
		c-0.3-0.4-0.7-0.8-1.2-1c-2.3-0.6-4.4-1.8-6.9-1.8c-1.3-0.1-2.6-0.3-3.9-0.7c-0.4-0.1-0.7-0.1-1.1,0c-0.9,0.1-1.9,0.3-2.8,0.5
		c-1.8,0.3-3.6,0.6-5.5,1C270.1,242,269.5,242.7,269.4,243.6z M298.4,388.3v0.6c0.8,0.1,1.7,0.1,2.5,0c4-0.6,8-1.4,12.1-1.9
		c4.4-0.5,7.9-3,11.5-5.5c2.9-2.2,5.6-4.6,8-7.4c1-1,2-2,3-3.1c1.5-1.6,3-3.3,4.5-4.9c0.7-0.6,0.9-1.5,0.6-2.3
		c-1.4,0.7-2.8,1.6-4.1,2.4c-1.6,1.2-3,2.7-4.6,3.9c-2.5,2.1-5.1,4.1-7.9,5.8c-3.9,2.2-7.5,5-11.7,6.2c-3,0.9-5.8,2.4-8.7,3.2
		C301.7,386.1,300.1,387.4,298.4,388.3L298.4,388.3z M225,348.6c-0.2-0.4-0.4-0.7-0.6-1c-0.9-1.8-1.8-3.7-2.7-5.5
		c-0.4-0.8-0.8-1.6-1.2-2.4c-2-3-4.1-6-6.1-9c-0.3-0.6-0.6-1.1-0.8-1.7c-1.2-2.7-2.4-5.5-3.6-8.2c-0.1-0.3-0.3-0.6-0.6-0.8
		c-2.2-1.7-3.4-4.3-4.9-6.6c-1.1-1.7-2.9-2.9-4.6-4.6c0.1,1.6,0.3,2.6,0.3,3.7c0.1,1.6,0.6,3.2,1.5,4.6c3.4,5.5,7.2,10.6,10,16.5
		c0.6,1.2,1.5,2.2,1.9,3.5c0.9,2.6,2.8,4.3,4.5,6.1s3.4,3.3,5.1,5C223.7,348.6,224.1,349.2,225,348.6z M345.9,319.9
		c1.1-1.5,2-2.6,2.8-3.7c1.8-2.8,3.8-5.3,5.1-8.5c1.2-2.9,2.8-5.5,4.2-8.3c0.7-1.4,1.5-2.7,2-4.2c0.7-1.7,1-3.5,1.8-5.1
		c0.9-2,1.5-4.2,1.6-6.5c0-1.2-0.1-2.4-0.5-3.6c-0.2-0.9-0.8-1.7-1.1-2.5c-0.6-1.9-1.9-3.4-3.7-4.2c-0.2,0.3-0.3,0.7-0.3,1.1
		c0,3.4-0.2,6.8,0.1,10.2c0.5,7.1-2.2,13.1-5.2,18.9c-2,3.8-4.3,7.4-6.5,11.1C345.3,316.2,345.2,318.2,345.9,319.9L345.9,319.9z
		 M293.4,356.3v-0.6c-0.4-0.1-0.8-0.2-1.3-0.2c-2.3,0.2-4.7,0.5-7,0.6s-4.9,1.1-7.4,0.3c-1.8-0.5-3.6-1.1-5.2-1.9
		c-0.9-0.5-1.8-0.8-2.8-0.9c-2.2-0.4-4.6-0.5-6.5-1.6s-3.6-1.9-5.4-2.9c-2.6-1.5-5.1-0.8-7.6-0.6c-0.5,0.1-0.9,0.5-0.8,1
		c0,0.1,0,0.2,0.1,0.3c0.2,1,0.7,1.8,1.3,2.6c1.6,1.1,3.3,2.1,5.1,2.9c1.7,0.7,3.7,0.8,5.3,1.6c2.2,0.9,4.5,1.4,6.9,1.4
		c2.9,0.1,5.7,0.1,8.6,0c3.1-0.1,6.2-0.4,9.3-0.7c1.5-0.1,2.9-0.5,4.3-0.8L293.4,356.3z M286.2,329.7c6.4,0.4,17.8-9.1,18.5-19
		c-1-0.1-2,0.3-2.5,1.1c-1.5,1.6-3.1,2.9-4.9,4.1c-2.6,1.7-5.1,3.3-8.2,3.2c-1,0-1.5,0.6-1.8,1.6c-0.2,0.6-0.3,1.3-0.3,1.9
		c0.4,2.1-0.5,4-0.7,6C286.3,329,286.2,329.3,286.2,329.7L286.2,329.7z M173.7,289.4c-0.2,0.2-0.4,0.4-0.4,0.5
		c0.1,3.1,0.3,6.1,0.4,9.2c0,0.1,0,0.1,0.1,0.2c0.7,2.4,1.3,4.7,2,7c0.8,2.5,1.7,5,2.7,7.4c1.1,2.8,2.5,5.4,3.6,8.1
		c1.2,2.6,3.1,4.9,5.4,6.5c0.4,0.3,1,0.2,1.9,0.5c-1.1-2.2-1.9-3.9-2.6-5.6c-0.5-1.2-0.9-2.4-1.2-3.6c-0.1-0.4-0.1-0.7-0.2-1
		c-1-2.2-2.1-4.3-3.2-6.5c-0.4-0.9-0.8-1.8-1.1-2.8c-0.5-2.2-1.3-4.4-2.4-6.4c-0.8-1.2-1.3-2.5-1.5-4c-0.2-0.7-0.5-1.4-1-2
		c-1.1-1.3-1.7-3.1-1.4-4.8C175,291.1,174.6,290,173.7,289.4z M229.3,363.4c1,0.8,1.6,1.4,2.2,1.9c2.2,2,4.4,4,6.6,5.8
		c1.6,1.3,3.4,2.2,5.1,3.4c0.8,0.6,1.5,1.4,2.4,1.9c3.3,2.1,6.9,3.3,10.4,4.7c1.2,0.6,2.5,1.1,3.8,1.4c2.7,0.4,5.2,2.1,8,2
		c0.3,0,0.6,0.3,0.9,0.4c0.4,0.2,0.8,0.4,1.2,0.4c2.3,0.2,4.7,0.4,7,0.6c0.3,0,0.6,0.1,0.9,0.2c2.4,1.5,5.1,1.2,7.6,2
		c1.7,0.6,3.3,0,5-1.2c-1-0.6-2.1-0.8-3.2-0.7c-1.6,0-3.2-0.1-4.8-0.2c-0.8,0-1.5-0.2-2.3-0.3c-4.4-0.3-8.6-1.4-12.6-3.4
		c-1.5-0.9-3.1-1.5-4.9-1.7c-0.3,0-0.5-0.1-0.7-0.2c-3.5-1.2-6.9-2.4-10.3-3.8c-1.7-0.6-3.3-1.5-4.9-2.3c-0.9-0.5-1.8-1-2.7-1.6
		c-0.3-0.2-0.7-0.4-1-0.6c-3.2-2.2-5.4-6-9.2-7.2c-0.3-0.1-0.5-0.5-0.8-0.7C232,363.6,230.6,363.2,229.3,363.4L229.3,363.4z
		 M202.5,278.7c-0.5,0.8-1,1.7-1.4,2.5c-0.4,1.2-0.5,2.6-0.8,3.8c-0.3,1.5-0.6,3-0.9,4.5c-0.1,0.9-0.2,1.9-0.2,2.8
		c-0.1,1.1,0,2.2-0.1,3.3c-0.2,1,0,2,0.5,2.9c1.7,3,3.3,6,5.1,9c0.6,1.2,1.6,2.2,2.7,2.9c0.1-0.3,0.1-0.5,0.1-0.8
		c-0.7-2.6-1.4-5.1-2-7.7c-0.4-1.5-0.6-3.1-0.7-4.7c0.1-1-0.1-2-0.4-3c-0.2-0.6-0.3-1.3-0.3-1.9c-0.1-2.7-0.1-5.4-0.2-8.1
		C203.8,282.3,203.3,280.4,202.5,278.7z M229,345.6l-0.4,0.6c0.7,1.2,1.5,2.4,2.4,3.4c1.4,1.6,3.1,2.7,4,4.8c0.7,1.7,2,3.2,3.7,3.9
		c3.3,1.2,6.7,1.2,10.1,1.3c0.1,0,0.2-0.2,0.3-0.4s0-0.5-0.1-0.6c-0.8-0.9-1.4-1.9-1.8-3c-0.3-0.8-0.9-1.5-1.7-1.9
		c-1.8-0.8-3.6-1.4-5.3-2.4c-2.6-1.5-5-3.6-8-4.2c-0.2-0.1-0.5-0.2-0.7-0.4C230.7,346.4,229.9,346,229,345.6z M260.6,185.3
		c0.6,1.7,0.8,2,2.1,1.9c5.6-0.4,11.3-0.8,16.9-1.3c0.6-0.1,1.1-0.2,1.7-0.4c1-0.3,2.1-0.6,3.1-0.8c2.8-0.5,5.5-0.9,8.3-1.4
		c0.7-0.1,1.3-0.3,2-0.4c-1.7-0.8-3.6-1.4-5.5-1.8c-0.5-0.1-1,0.2-1.5,0.3c-1.4,0.2-2.8,0.7-4.1,0.4c-2.3-0.4-4.7-0.3-7,0.4
		c-0.4,0.1-0.9,0.2-1.3,0.2c-3.5-0.1-7,0.5-10.4,1.6C263.6,184.5,262.1,184.9,260.6,185.3L260.6,185.3z M311.8,196.3
		c1.1,1.1,2.3,2.1,3.6,3c3.1,2,5.9,4.3,8.5,6.8c0.3,0.3,0.6,0.5,1,0.7c0.7,0.4,1.4,0.9,2.1,0s1.3-1.8,0.8-2.9
		c-0.6-1.5-0.8-3.1-0.5-4.7c0.1-1-0.2-1.6-1.1-1.7c-1.7-0.4-3.5-0.8-5.2-1.1c-1.3-0.2-2.6-0.4-4.1-0.7c-0.5,0.6-1.4,0.7-2.3,0.3
		C313.6,195.7,312.6,195.8,311.8,196.3L311.8,196.3z M365.5,213.9c-1-2.3-2.5-3.1-3.9-4.2c-1.9-1.5-3.8-3.2-5.8-4.5
		c-2.5-1.6-5.2-2.9-7.8-4.5c-1.9-1.2-4.2-1.6-6.4-1.1c1.7,1.9,3.7,3.6,5.8,5c2.1,1.4,4.2,3,6.3,4.5c1,0.7,2.1,1.4,3.2,1.9
		c2,0.7,4.1,1.1,5.9,2.3C363.7,213.6,364.6,213.8,365.5,213.9L365.5,213.9z M322.4,307.7l0.6,0.1c0-2.5,1.8-4.4,1.4-7.1
		c0-0.4,0.1-0.7,0.3-1c0.8-1.1,0.6-2.3,0.5-3.5c-0.3-2.2-0.4-4.5-0.3-6.7c0.3-3.3-1.3-6-1.3-9.5c-0.8,1.1-1.2,2.3-1.3,3.6
		c-0.3,1.9-0.7,3.8-1.3,5.7c-0.8,2.1-1,4.4-0.6,6.6c0.3,1.6,0.6,3.3,0.9,4.9C321.6,303,322,305.3,322.4,307.7L322.4,307.7z
		 M235.8,283.8c0.2-0.2,0.4-0.5,0.5-0.7c0.6-2.2,1.1-4.5,1.8-6.7c1.1-3.5,2.4-6.9,3.6-10.3c0.6-1.6,1.2-3.2,1.8-4.8
		c0.1-0.6,0.2-1.2,0.2-1.8c-0.5,0.1-0.8,0.1-0.9,0.2c-1.2,1.1-2.4,2.4-3.5,3.6c-1.6,2.2-2.9,4.7-3.9,7.2c-1.4,3.3-1.3,6.9-1.7,10.4
		C233.7,282.3,234.6,283.5,235.8,283.8L235.8,283.8z M307.8,256.9c0.3,2.4,0.7,2.9,2.4,3.9c2.3,1.3,4.6,2.6,7,4
		c0.9,0.5,1.7,1.4,2.6,1.8c0.5,0.3,1.2,0.4,1.7,0.1c1.1-1.1,1.3-2.9,0.4-4.2c-0.4-0.6-0.9-1.1-1.5-1.7c-0.6-0.6-1.2-1.3-1.8-1.9
		c-0.9-1.5-2.4-2.5-4.2-2.7c-0.8,0-1.5,0-2.3-0.1C310.6,255.7,309.2,256.3,307.8,256.9L307.8,256.9z M249.2,281.8
		c1.6,0.1,3.3-0.2,4.8-0.8c0.7-0.4,1.5-0.7,2.3-0.8c1.2-0.1,2.3-0.7,3-1.7c1-1.2,2-2.4,3.1-3.6c1.1-1.3,2.4-2.3,3.9-3
		c1.2-0.6,2.1-1.5,2.8-2.7c-0.1-0.2-0.1-0.3-0.2-0.3s-0.2-0.1-0.4-0.1c-3.1,0.7-6.4,1-9.1,3.4c-0.1,0.2-0.3,0.3-0.5,0.3
		c-1.5,0.1-2.3,1.4-3.3,2.3c-0.8,0.7-1.5,1.4-2.2,2C251.7,278.2,250.3,279.9,249.2,281.8L249.2,281.8z M354.2,251.1
		c-0.9,1.2-1,2-0.3,3.5c0.3,0.6,0.9,1.3,0.9,1.9c-0.3,2.8,0.8,5.1,1.5,7.6c0.1,0.7,0.5,1.2,1.1,1.6c2.5,1.1,4,3.3,5.2,5.8
		c0.2,0.3,0.5,0.5,1,0.9c0.5-1.7,0.5-3.5-0.1-5.1c-1.2-3-2.2-6.2-4-8.9c-0.8-1.2-1.6-2.5-2.2-3.8
		C356.7,253.3,355.4,252.4,354.2,251.1L354.2,251.1z M302,275.8c0.7-2.1,0.7-2.2-0.1-3.4c-0.4-0.5-0.7-1.1-0.9-1.6
		c-0.6-2.1-1.5-4.1-2.9-5.9c-0.7-0.9-1.2-1.9-2.5-1.4c-0.4,0.1-0.9-0.3-1.4-0.5s-1-0.6-1.4-0.5c-1.8,0.4-3.5,1-5.5,1.6
		c0.5,1,1.3,1.8,2.3,2.3c1.3,0.9,2.7,1.6,4,2.5c0.4,0.3,1.1,0.6,1.2,1c0.5,1.6,1.6,1.9,2.8,2.2c1,0.2,1.8,0.9,2.3,1.8
		C300.6,274.5,301.2,275.2,302,275.8z M222.1,330.8c0.4,0.7,0.9,1.4,1.4,2.1c1.3,1.4,2.8,2.6,3.8,4.2c1.7,2.9,4.1,3.9,6.9,4.5
		c1.9,0.4,3.7,0.9,5.6,1.3c0.5,0,0.9,0,1.4-0.1c-0.1-0.6,0.1-1.4-0.2-1.8c-0.7-1-1.6-1.8-2.6-2.5c-2.8-1.6-5.8-2.9-8.8-4
		c-1.7-0.5-3.3-1.4-4.5-2.7C224.2,331,223.2,330.6,222.1,330.8L222.1,330.8z M328.1,248.2L328.1,248.2c0.1,0.4,0,0.9,0,1.3
		c0,1.4,0.5,2,1.6,1.7c1-0.3,2-0.1,2.9,0.3c0.5,0.2,1.1,0.3,1.7,0.2c1.3,0,1.7-0.6,1.4-2.1c-0.3-1.2-0.7-2.5-1.2-3.7
		c-0.5-1.3-1-2.7-1.5-4c-0.2-0.6-0.5-1.1-0.8-1.7s-0.5-1.1-0.8-1.6s-0.5-1.1-0.8-1.2c-0.8-0.2-1.2,0.5-1.3,1.3
		C329,241.8,328.6,245,328.1,248.2L328.1,248.2z M182.1,259.5c-1.2,0.4-2.1,1.3-2.6,2.5c-1.1,2.6-1.9,5.2-2.4,8
		c-0.1,0.9-0.5,1.7-0.7,2.5c-0.2,0.8-0.4,1.7-0.5,2.5c-0.3,3.7,0.6,7.2,1.2,10.8c0.1,0.5,0.5,0.8,0.9,1.4c0.3-0.5,0.5-0.8,0.5-1
		c0.1-2.3,0-4.6,0.1-7s0.1-4.8,0.2-7.2c0-0.3,0.1-0.7,0.3-1c0.4-1.3,0.9-2.5,1.3-3.8c0.5-1.6,0.3-3.4,1.4-4.8
		C182.2,261.9,182,260.7,182.1,259.5z M291.6,259.2l0-0.5c-4.1-1.6-8.3-1.2-12.5-0.2c-3.5,0.8-8.6,3.3-9.4,4.8
		c1.5,0.6,2.9,0.2,4.3-0.2s2.8-1,4.1-0.9c2.1,0.2,4-0.4,6-0.8c0.6-0.1,1.1-0.2,1.7-0.4C287.7,260.4,289.6,259.8,291.6,259.2
		L291.6,259.2z M336.7,239.5l-0.2,0.3c0.9,2.9,1.8,5.9,2.7,8.9c0.4,1.3,0.9,2.7,1.4,4c0.2,0.4,0.6,0.7,1,0.9
		c1.4,0.6,2.9,1.2,4.3,1.7c0.5,0.1,0.9,0.2,1.4,0.2c-0.2-0.9-0.5-1.8-0.8-2.6c-1-1.8-1.5-4-3.4-5c-0.1-0.1-0.2-0.4-0.3-0.6
		c-1.3-2.3-2.8-4.4-4.6-6.3C337.8,240.4,337.3,239.9,336.7,239.5L336.7,239.5z M337.3,356.3l-0.3-0.5l-6.9,3
		c-0.7,0.4-1.4,0.7-2.1,0.9c-2.6,0.6-5.2,1.4-7.7,2.2c-1.6,0.6-2.2,2-3.3,3.4c0.3,0.1,0.6,0.1,0.8,0.1c4.4-1.1,8.8-2.2,13.2-3.4
		c0.9-0.3,1.7-0.6,2.5-1.1C335.3,360,336.1,357.9,337.3,356.3L337.3,356.3z M248.1,297.6c0.3-0.5,0.5-0.8,0.7-1.2
		c1.6-3.3,3.2-6.6,4.7-9.9c0.3-0.5,0.3-1,0.2-1.5c-0.4-0.7-1-0.3-1.5-0.1c-1.2,0.5-2.5,1-3.8,1.5c-1.2,0.4-2.1,1.4-2.4,2.6
		C245,292.2,245.6,294.8,248.1,297.6L248.1,297.6z M282.6,340.5c0.9,0.2,1.7,0.2,2.6,0.2c2.4-0.4,4.7-0.9,7.1-1.5
		c2.3-0.6,4.5-1.8,6.4-3.4c0.3-0.4,0.6-0.7,0.9-1.2l-0.2-0.4c-1.2,0.2-2.3,0.4-3.5,0.5c-1.9,0.2-3.8,0.4-5.7,0.6
		c-0.4,0.1-0.9,0.2-1.3,0.5c-1,0.4-1.9,0.8-2.9,1.2C284.8,337.7,283.4,338.2,282.6,340.5L282.6,340.5z M339.8,232.3
		c-0.9-2.5-2.2-4.9-3.9-7.1c-0.4-0.5-0.7-1-0.9-1.6c-0.6-2-2.1-2.9-3.6-4.4c-0.1,2.6-0.1,4.9-0.2,7.1c-0.1,1.1,0.4,2.1,1.3,2.8
		c1.8,1.1,3.7,2.2,5.6,3.2C338.5,232.5,339,232.3,339.8,232.3z M246.9,309.2c-0.2-1.1-0.2-2.2-0.2-3.3c0.2-1.1,0-2.2-0.7-3
		c-0.7-1-1.2-2-1.7-3.1c-0.8-2-1.5-4.1-2.3-6.2c-0.4-1.1-1.1-1.3-2-0.7c-0.8,0.4-1.1,1.3-0.9,2.2c0.6,2.9,1.7,5.7,3.3,8.3
		c0.4,0.7,0.9,1.4,1.4,2.1C244.5,306.9,245.6,308.2,246.9,309.2z M313.7,268.5l-0.4,0.4c0.4,1.1,0.7,2.1,1.1,3.2
		c1,3.4,2,6.7,3.1,10.1c0.2,0.4,0.6,0.9,0.9,1.2c0.3-0.8,0.5-1.3,0.8-1.8c0.7-1.6,0.6-3.6,1.2-5.2c0.4-1,0.2-2.2-0.7-2.9
		c-0.4-0.4-1.1-0.8-1.3-1.3C317.5,269.7,315.6,269.2,313.7,268.5z M340.7,207.4c-0.6-2.2-2.2-3.2-3.4-4.1c-1.9-1.4-4-3.1-6.7-2.5
		c0.1,1.4,0.3,2.7,0.3,3.9c0,1.9,0.5,2.7,2.2,2.6c0.9-0.1,1.9,0.1,2.8,0.3C337.5,208,339.1,207.9,340.7,207.4L340.7,207.4z
		 M234.1,306.5l-0.5-0.1c-0.2,1.8-1.1,3.3-1.3,5.1c0,1.4-0.1,2.7-0.3,4.1c-0.8,3.6,1.1,5.8,3,7.9c0.2,0.2,0.7,0.2,1,0.3
		c0.4-0.8,0.4-1.8,0-2.6c-0.4-1.2-0.6-2.4-0.7-3.6c0.2-3.4-0.4-6.7-0.8-10C234.4,307.3,234.3,306.9,234.1,306.5z M309.1,366.7
		c-0.7-0.5-1.1-1-1.6-1c-1.2-0.1-2.4-0.1-3.6,0.2c-1.6,0.5-3.2,0.7-4.9,0.7c-0.5,0-1,0-1.5,0.1c-1.9,0.3-3.8,0.8-5.6,1
		c-3.3,0.3-6.5,0.5-9.8,0.7v0.5c3,0.2,5.9,0.4,8.9,0.4s6-0.2,9-0.3c0.4,0,0.9,0,1.3-0.1c1.2-0.1,2.5-0.4,3.8-0.4
		C306.6,368.2,308,367.6,309.1,366.7L309.1,366.7z M356.1,343.9c-1.4,0.4-2.7,1.1-3.7,2c-1.1,1-2.3,2-3.6,2.9
		c-1.7,1.2-3.4,2.3-5,3.5c-0.5,0.4-0.9,0.9-1.1,1.4c-0.4,0.7-0.7,1.5-1,2.3c-0.2,0.4-0.3,0.9-0.5,1.3c0.7,0,1.4-0.3,2-0.7
		c1.8-1.2,3.6-2.4,5.4-3.7c0.3-0.3,0.6-0.6,0.9-0.9c0.7-0.7,1.5-1.3,2.2-2c0.4-0.3,0.8-0.5,1.1-0.9c0.5-0.9,0.9-1.9,1.5-2.8
		C354.8,345.6,355.4,344.8,356.1,343.9L356.1,343.9z M322.7,338.8c2.3-1.7,4.5-3.6,6.6-5.6c1.1-1.1,1.5-3,2.3-4.5
		c0.1-0.1-0.1-0.4-0.1-0.6c-0.2,0-0.5-0.1-0.6,0c-1.9,1.6-4.1,2.8-6.4,3.7c-1.2,0.4-1.9,1.5-1.8,2.8
		C322.7,335.7,322.7,337,322.7,338.8L322.7,338.8z M327,220.8c0.2-0.2,0.4-0.5,0.5-0.7c0.8-1.6-0.1-3.3,0.1-4.9c0-0.5-1-1.1-1.3-1.7
		c-0.7-1.5-2.1-1.1-3.2-1.7c-0.5-0.4-1.3-0.3-1.7,0.2c-0.1,0.1-0.1,0.2-0.1,0.2c-0.5,0.8-0.3,1.8,0.3,2.4c0.2,0.3,0.5,0.6,0.9,0.8
		c1.1,0.7,1.9,1.6,2.4,2.8C325.2,219.2,326,220.2,327,220.8L327,220.8z M241.9,194c1.4,0.5,3,0.2,4.1-0.7c1.2-0.9,2.5-1.7,3.8-2.2
		c2.7-1.4,5.6-2.4,8.6-2.7c0.5-0.1,1.1-0.2,1.6-0.4c-0.2-1.9-0.8-2.3-2.1-1.9c-2.8,0.9-5.1,3.2-8.1,3.3c-0.1,0-0.2,0.1-0.3,0.2
		c-1.8,1.2-3.7,2.1-5.9,2.5C242.5,192.1,241.8,193,241.9,194z M226.7,217.8c-1.4-0.3-2.3,0-4.1,1.5c-2.9,2.2-5.1,5.2-6.3,8.6
		C219.4,226.7,225.2,221,226.7,217.8L226.7,217.8z M311.2,373.1c0.5,0.2,0.9,0.2,1.4,0.2c1.4-0.2,2.7-0.7,4-1.3
		c0.7-0.5,1.5-0.6,2.3-0.3c0.9,0.3,2,0.1,2.6-0.7c1-0.7,2-1.4,3.1-2c0.3-0.2,0.6-0.5,0.9-0.8l-0.2-0.5c-3.4,0.8-6.9,1.5-10.3,2.5
		C313.5,370.6,312,371.7,311.2,373.1z M310.2,252.6c-1.8-2.8-4.3-3.9-6.9-4.9c-0.6-0.2-1.2-0.9-1.9-0.2c1,1.7,2,3.4,3.1,5
		c1.2,1.8,1.2,1.8,3.1,0.9c0.4-0.1,0.9-0.2,1.3-0.2C309.2,253,309.6,252.8,310.2,252.6L310.2,252.6z M245.9,202.7
		c-3.7-0.6-6.5,1.3-9.3,2.8c-1.2,0.5-2.1,1.6-2.4,2.8c0.2,0.1,0.3,0.3,0.4,0.3c2.4-0.5,4.9-0.7,6.8-2.8c0.5-0.4,1.1-0.7,1.7-0.9
		C244.2,204.4,245.2,203.7,245.9,202.7L245.9,202.7z M204.5,329c-0.6,0.5-0.4,1,0,1.5c0.7,1.1,1.3,2.3,1.8,3.5
		c1.1,3.3,2.7,6.3,4.7,9.1c0.2,0.3,0.4,0.5,0.7,0.7c0.4,0.1,0.8,0.2,1.2,0.2c0-0.5,0-0.9-0.1-1.4c-0.8-1.4-1.6-2.7-2.4-4.2
		c-1.7-3.2-4.2-5.6-5.4-9.2C205,329.2,204.7,329.1,204.5,329z M219.4,212.2c-1.1-0.1-2.2,0.3-2.9,1.1c-2.2,2.3-4.4,4.6-6.6,6.9
		c-0.8,0.6-1.3,1.6-1.1,2.6l2.6-2.2c0.9-0.8,1.8-1.6,2.8-2.3c2-1.3,3.7-3,5-5C219.2,213,219.3,212.6,219.4,212.2z M297.8,379
		c-4.9-0.5-11.7,0.3-13,1.5C287.6,381.9,295.8,381.1,297.8,379z M366.5,340.5c-1.2-0.3-1.6,0.6-2.1,1.1c-1.1,1.3-2.2,2.6-3.3,3.9
		c-0.6,0.7-1.3,1.4-1.9,2.1c-0.2,0.4-0.4,0.8-0.5,1.3l0.3,0.3c1.7-1.1,3.6-1.8,4.9-3.3S365.6,342.5,366.5,340.5L366.5,340.5z
		 M330.4,275.7c0.5-2.4,0.4-2.3-0.8-3.4c-0.4-0.3-0.8-0.8-0.9-1.3c-0.3-2.1-2-2.8-2.9-4.4c-0.9,1.6-1,2.9-0.2,3.9
		C327.2,272.2,328.7,273.8,330.4,275.7L330.4,275.7z M308.7,200.6c0.8,0.9,1.7,1.7,2.7,2.3c1.3,0.7,2.4,1.7,3.3,2.8
		c0.7,0.7,1.4,1.3,2.3,1.8c0.5,0.3,1.1,0.3,1.5-0.6c-0.2-0.5-0.5-0.9-0.9-1.2C314.7,203.8,312.2,201.1,308.7,200.6L308.7,200.6z
		 M256.8,325c0,1,0.6,1.9,1.5,2.3c0.6,0.4,1.3,0.8,2,1.2c2.2,0.9,4.4,1.8,6.6,2.5c0.3,0.1,0.8-0.2,1.3-0.4c-1.2-1.7-2.8-0.8-4-1.6
		c-1.2-0.8-2.4-1.5-3.7-2.1C259.4,326.4,258.4,325,256.8,325z M323.7,345.1c3.3-1.8,6.9-2.7,8.7-6.8
		C330,338.7,324.9,342.7,323.7,345.1L323.7,345.1z M322.4,191.1c-1.5-1.2-2.5-2.5-4.2-2.3c-0.4,0-0.9-0.1-1.2-0.4
		c-1.6-0.7-3.5-0.6-5,0.4c0.1,0.2,0.1,0.5,0.3,0.5C315.5,190,318.8,190.5,322.4,191.1z M330.8,191.4c1.7,2.3,4.7,3.4,7.5,2.7
		c-1.5-2.3-3.9-1.9-5.8-2.9C332.1,191,331.4,191.3,330.8,191.4z M305.8,373.2l-0.2-0.4c-0.8,0.2-1.6,0.4-2.4,0.5
		c-2.4,0.2-4.8,0.4-7.1,0.6c-0.5,0-1.1,0.1-1.2,1.1c3.5,0.8,6.7-0.9,10-1.1C305.2,373.9,305.5,373.4,305.8,373.2L305.8,373.2z
		 M318.7,323.9c-1.5,1.3-2.7,2.8-3.5,4.5c1,0.1,1.9,0.2,2.9,0.2c0.4,0,0.7-0.3,0.9-0.6C319.4,326.7,319.3,325.2,318.7,323.9
		L318.7,323.9z M336.8,328.8c2.2-1.7,2.5-4.4,3.6-6.5c-0.9-0.6-1.4-0.1-1.8,0.5C337.5,324.5,336.4,326.2,336.8,328.8L336.8,328.8z
		 M304.5,337c2.2-0.8,4.2-1,5.7-2.7C308.4,333.2,306.6,334,304.5,337z M263.3,198.3c4.3-0.2,5.4-0.6,6.4-1.9
		C267.8,195.9,267.7,196,263.3,198.3z M278.8,339.6c-1.4,0-2.7,0-4,0c-0.5,0-1,0.1-1.5,0.3c-0.3,0.1-0.5,0.4-0.7,0.7
		C274.7,341.5,277.1,341.1,278.8,339.6L278.8,339.6z M250.4,199.7c-1.9-0.3-3.8,0.3-5.2,1.6C247.1,202.2,249.3,201.5,250.4,199.7z
		 M369.5,282.5c1.2-2.2,0.6-3.7-1.5-4.1C367.8,279.9,368.4,281.4,369.5,282.5z M208.7,232.1c-1.3,0.2-2.4,1.2-2.9,2.5
		c-0.1,0.3,0,0.7,0.2,1c0.2,0.2,0.4,0.2,0.7,0.1c0.5-0.4,1-0.9,1.4-1.5C208.4,233.5,208.6,232.8,208.7,232.1z M304.7,380.1
		c1.9-0.2,3.6-1,5-2.4C307.9,377.4,306.9,377.8,304.7,380.1L304.7,380.1z M285,375.4c2,1.2,4.5,1.1,6.4-0.3c-1.2,0-2.2,0-3.3,0
		S286.1,375.3,285,375.4L285,375.4z M320.7,255c0.2,1,0.8,1.8,1.6,2.4c0.2,0.2,0.9,0,1.1-0.3c0.2-0.4,0.2-0.9,0-1.3
		C322.6,255.2,321.9,254.4,320.7,255z M394.4,244.4l-0.4,0.2c0.4,0.9,0.8,1.9,1.1,2.8s0.1,2.3,1.4,2.8c-0.2-1.7-0.6-3.3-1.3-4.9
		C394.9,245,394.7,244.7,394.4,244.4z M278.5,375.5v0.6c1.3,0.8,2.8,0.1,4.1,0.2c0.2,0,0.4-0.4,0.9-0.8H278.5z M272,195.8
		c1.3,0.3,2.7-0.1,3.7-1C274,194,273,194.9,272,195.8z M267.8,243.3c-1.7-0.6-2.6,0.3-3.5,1.1C265.6,244.8,267,244.4,267.8,243.3
		L267.8,243.3z M278.7,194.8c0.9,0.1,1.9,0.5,2.9-0.2C279.9,193.9,279.9,193.9,278.7,194.8L278.7,194.8z M199.8,334
		c-0.3-2-0.5-2.4-1.7-2.8C198.1,332.4,198.8,333.5,199.8,334z M311.6,364.3l-2.3,0.3C310.1,366.4,310.3,366.4,311.6,364.3
		L311.6,364.3z M269.2,367.5c1.4,1.3,1.6,1.3,2.8,0H269.2z M246.9,256.9l-0.3-0.4l-1.4,1.4l0.2,0.3L246.9,256.9z M266,367.6l0.1-0.5
		l-1.5-0.2l0,0.5L266,367.6z M258.9,199.8l0.2,0.3l0.9-0.6c-0.3-0.2-0.5-0.3-0.7-0.2C259.1,199.5,259,199.6,258.9,199.8L258.9,199.8
		z M196.5,231.5c-0.2,0.2-0.4,0.4-0.5,0.7c0,0.1,0.3,0.4,0.3,0.4c0.2-0.1,0.4-0.3,0.5-0.5C196.8,232.1,196.6,231.8,196.5,231.5
		L196.5,231.5z M197.3,241.4l0.3,0.4l0.8-0.9l-0.2-0.3L197.3,241.4z M215,346.4l0.1-0.4l-0.7-0.4l-0.1,0.5L215,346.4z M214.2,234.8
		c0.2,0.2,0.3,0.3,0.4,0.4s0.3-0.1,0.3-0.2c0-0.2-0.1-0.3-0.1-0.5L214.2,234.8z"/>
	<path class="st0" d="M406.1,201.2l-0.3,0.5c-0.2-0.2-0.3-0.3-0.4-0.5c0-0.1,0.2-0.4,0.3-0.4S405.9,201.1,406.1,201.2z"/>
	<path class="st0" d="M295.6,201.7c-0.5,0.4-0.7,0.8-0.9,0.8c-0.7,0.1-1.1-0.4-1.1-1.1c0-0.2,0.4-0.7,0.5-0.7
		C294.6,201.1,295.1,201.4,295.6,201.7z"/>
	<path class="st0" d="M383.5,246.8l-0.7-0.7l0.5-0.6l0.5,1L383.5,246.8z"/>
	<path class="st0" d="M178.3,306.4c-0.7,0.2-0.9,0.4-1.1,0.3s-0.2-0.3-0.3-0.4c0.2-0.1,0.4-0.2,0.6-0.3
		C177.7,306,177.8,306.2,178.3,306.4z"/>
</g>
</svg>
